<svg id="Layer_1" data-name="Layer 1" xmlns="http://www.w3.org/2000/svg" viewBox="0 0 1080.86 94.79"><g id="dd"><path d="M56.16,559.4A50.58,50.58,0,0,1,50,574.34a25.2,25.2,0,0,1-22,13H-.43v-5.69c0-1.37.43-2.16,1.29-2.45l4.9-1.51V502.34l-4.9-1.51c-.86-.29-1.29-.93-1.29-2.45V492.7H28a25.21,25.21,0,0,1,22,13A63.16,63.16,0,0,1,58.36,540,78.9,78.9,0,0,1,56.16,559.4Zm-7.92-34.95a38.49,38.49,0,0,0-4.39-11.59A17.65,17.65,0,0,0,28,503.06H14.15V577H28a17.74,17.74,0,0,0,15.84-9.75A52.78,52.78,0,0,0,50,540,71,71,0,0,0,48.24,524.45Z" transform="translate(0.43 -492.66)"/></g><g id="dd-2" data-name="dd"><path d="M161.28,492.7v22.86h-4.14c-1,0-1.58-.8-1.8-2.31,0-.39-.25-3.6-.58-10.11H131.69v31.42H154.4v10.05H131.69V577H154.8c.32-5.87.5-9,.54-9.36.22-1.51.83-2.27,1.8-2.27h4.14v22.07H117.11v-5.8c0-1.37.43-2.16,1.29-2.45l4.9-1.51V502.34l-4.9-1.51c-.86-.29-1.29-1.08-1.29-2.45V492.7Z" transform="translate(0.43 -492.66)"/></g><g id="dd-3" data-name="dd"><path d="M282.17,582.08v5.22H264.49v-5.22c0-1.18.4-1.94,1.15-2.23l3.6-1.51-4.82-19.12H237.78L233,578.34l3.6,1.51c.79.29,1.18,1,1.18,2.23v5.22H220v-5.22c0-1.18.36-1.9,1.11-2.16l3.6-1.58,22.14-85.68h8.32l22.28,85.68,3.6,1.58C281.77,580.18,282.17,580.9,282.17,582.08ZM262,550l-9.1-36.32c-.65-2.38-1.26-5.33-1.88-8.89-.68,3.85-1.29,6.84-1.8,9L240.12,550Z" transform="translate(0.43 -492.66)"/></g><g id="dd-4" data-name="dd"><path d="M393.34,581.65v5.69h-8.93a3.61,3.61,0,0,1-3.35-2.7l-16-33.84a7.33,7.33,0,0,0-1.59-2.27,4.09,4.09,0,0,0-2.59-.68h-5.51v29.84l4.9,1.51a2.49,2.49,0,0,1,1.33,2.45v5.69H340.88v-5.69a2.5,2.5,0,0,1,1.34-2.45l4.89-1.51V502.34l-4.89-1.51a2.48,2.48,0,0,1-1.34-2.45V492.7h22.83a25.78,25.78,0,0,1,10.08,1.8,18.47,18.47,0,0,1,7.2,5.25,23.22,23.22,0,0,1,4.1,8.32,41.4,41.4,0,0,1,1.33,10.8,40.65,40.65,0,0,1-1,9.39,29.55,29.55,0,0,1-3,7.82,21.72,21.72,0,0,1-4.82,6,19.26,19.26,0,0,1-6.37,3.6,11.8,11.8,0,0,1,2.73,4l13.39,28L392,579.1A2.45,2.45,0,0,1,393.34,581.65Zm-23.62-44.46a12.29,12.29,0,0,0,4.64-3.85,17.36,17.36,0,0,0,2.85-5.9,29.09,29.09,0,0,0,.93-7.6,19.27,19.27,0,0,0-3.6-12.74,13.3,13.3,0,0,0-10.8-4.29h-8.35v35.71h7.78A14.36,14.36,0,0,0,369.72,537.19Z" transform="translate(0.43 -492.66)"/></g><g id="dd-5" data-name="dd"><path d="M533.88,559.4a50.58,50.58,0,0,1-6.19,14.94,25.2,25.2,0,0,1-22,13h-28.4v-5.69c0-1.37.43-2.16,1.26-2.45l4.93-1.51V502.34l-4.93-1.51c-.83-.29-1.26-1.08-1.26-2.45V492.7h28.4a25.19,25.19,0,0,1,22,13A63.2,63.2,0,0,1,536,540,80.33,80.33,0,0,1,533.88,559.4ZM526,524.45a39.13,39.13,0,0,0-4.39-11.59,17.68,17.68,0,0,0-15.88-9.8H491.87V577h13.82a17.8,17.8,0,0,0,15.88-9.75A52.72,52.72,0,0,0,527.51,540,71,71,0,0,0,526,524.45Z" transform="translate(0.43 -492.66)"/></g><g id="dd-6" data-name="dd"><path d="M657,582.08v5.22H639.32v-5.22c0-1.18.36-1.94,1.16-2.23l3.6-1.51-4.83-19.12H612.68L608,578.34l3.6,1.51c.75.29,1.15,1,1.15,2.23v5.22H595v-5.22c0-1.18.4-1.9,1.12-2.16l3.6-1.58,21.92-85.68h8.46l22.29,85.68,3.6,1.58C656.6,580.18,657,580.9,657,582.08ZM636.77,550l-9-36.32c-.61-2.38-1.22-5.33-1.83-8.89-.69,3.85-1.3,6.84-1.8,9L614.92,550Z" transform="translate(0.43 -492.66)"/></g><g id="dd-7" data-name="dd"><path d="M771.84,502.34v75.35l5.22,1.59c.68.21,1,1,1,2.37v5.69H757.26v-5.69c0-1.37.43-2.16,1.3-2.45l4.89-1.51V544.28H730.33v33.41c4.14,1.3,6.19,2.59,6.19,4v5.69H715.75v-5.69c0-1.37.43-2.16,1.3-2.45l4.89-1.51V502.34l-5.14-1.58c-.69-.22-1-1-1-2.38V492.7h20.77v5.68c0,1.37-.32,2.13-.93,2.34l-5.26,1.62v32.4h33.19v-32.4l-5.14-1.58c-.69-.22-1-1-1-2.38V492.7h20.81v5.68c0,1.37-.43,2.16-1.33,2.45Z" transform="translate(0.43 -492.66)"/></g><g id="dd-8" data-name="dd"><path d="M880,587.34h-43.2v-5.69a2.45,2.45,0,0,1,1.3-2.45l4.89-1.51V502.34l-4.89-1.51a2.44,2.44,0,0,1-1.3-2.45V492.7h20.74v5.68a2.48,2.48,0,0,1-1.34,2.45l-4.86,1.51v74.24h22.22c.21-3.78.39-7.2.46-7.56.18-1.34.94-2.27,1.77-2.27H880Z" transform="translate(0.43 -492.66)"/></g><g id="dd-9" data-name="dd"><path d="M953.28,502.34v75.35l5.22,1.59c.68.21,1,1,1,2.37v5.69H938.74v-5.69c0-1.37.43-2.16,1.29-2.45l4.9-1.51V502.34l-5.15-1.58c-.68-.22-1-1-1-2.38V492.7h20.77v5.68c0,1.37-.43,2.16-1.33,2.45Z" transform="translate(0.43 -492.66)"/></g><g id="dd-10" data-name="dd"><path d="M1080.43,582.12v5.22h-17.67v-5.22c0-1.19.39-1.94,1.15-2.23l3.6-1.51-4.83-19.12h-26.56l-4.83,19.12,3.6,1.51c.79.29,1.19,1,1.19,2.23v5.22h-17.71v-5.22c0-1.19.36-1.91,1.11-2.16l3.6-1.58,22-85.68h8.46L1076,578.38l3.6,1.58C1080,580.21,1080.43,580.93,1080.43,582.12ZM1060.31,550l-9.11-36.33c-.65-2.37-1.26-5.32-1.87-8.89-.69,3.85-1.3,6.84-1.8,9L1038.38,550Z" transform="translate(0.43 -492.66)"/></g></svg>