<?xml version="1.0" encoding="UTF-8" standalone="no" ?>
<!DOCTYPE svg PUBLIC "-//W3C//DTD SVG 1.1//EN" "http://www.w3.org/Graphics/SVG/1.1/DTD/svg11.dtd">
<svg xmlns="http://www.w3.org/2000/svg" xmlns:xlink="http://www.w3.org/1999/xlink" version="1.1" width="1080" height="1080" viewBox="0 0 1080 1080" xml:space="preserve">
<desc>Created with Fabric.js 5.2.4</desc>
<defs>
</defs>
<g transform="matrix(1 0 0 1 540 540)" id="82243b0b-1839-4b69-8d94-ff983d69e5b2"  >
<rect style="stroke: none; stroke-width: 1; stroke-dasharray: none; stroke-linecap: butt; stroke-dashoffset: 0; stroke-linejoin: miter; stroke-miterlimit: 4; fill: rgb(255,255,255); fill-rule: nonzero; opacity: 1; visibility: hidden;" vector-effect="non-scaling-stroke"  x="-540" y="-540" rx="0" ry="0" width="1080" height="1080" />
</g>
<g transform="matrix(1 0 0 1 540 540)" id="e30b73c0-99f6-4321-bdf2-70a4e412a290"  >
</g>
<g transform="matrix(3.6 0 0 3.6 540 540)"  >
<g style=""   >
		<g transform="matrix(1 0 0 1 -141.95 0)" id="dd"  >
<path style="stroke: none; stroke-width: 1; stroke-dasharray: none; stroke-linecap: butt; stroke-dashoffset: 0; stroke-linejoin: miter; stroke-miterlimit: 4; fill: rgb(51,51,51); fill-rule: nonzero; opacity: 1;" vector-effect="non-scaling-stroke"  transform=" translate(-8.17, -13.14)" d="M 15.72 18.53 C 15.373793182809775 19.996900008946927 14.792984250783821 21.398270397265364 14 22.680000000000003 C 12.771216182703906 24.8999555199898 10.437328122582334 26.281158126061744 7.9 26.29 L 0 26.29 L 0 24.71 C 0 24.330000000000002 0.12 24.11 0.36 24.03 L 1.7200000000000002 23.61 L 1.7200000000000002 2.68 L 0.36 2.26 C 0.12 2.18 0 2 0 1.58 L 0 0 L 7.9 0 C 10.437328122582334 0.008841873938255154 12.771216182703903 1.3900444800101996 13.999999999999998 3.6099999999999968 C 15.66868259481531 6.503480062830552 16.47699897700738 9.813067310089059 16.330000000000002 13.149999999999995 C 16.35040458713453 14.961682792124245 16.145499877521896 16.768875149035686 15.719999999999999 18.530000000000005 Z M 13.52 8.82 C 13.290518879039125 7.687644687363735 12.87847790855779 6.600126716093326 12.299999999999995 5.599999999999993 C 11.470380201096805 3.929959004731734 9.764748320127577 2.875568387405301 7.900000000000002 2.879999999999999 L 4.05 2.88 L 4.05 23.41 L 7.9 23.41 C 9.760530687768366 23.409292477321383 11.46219518006615 22.361221846837974 12.3 20.7 C 13.534098101387695 18.381553199739177 14.121310750906146 15.773638197466063 14.000000000000002 13.150000000000006 C 14.000904370492501 11.693341413752165 13.839916224322305 10.241094178508558 13.519999999999996 8.820000000000007 Z" stroke-linecap="round" />
</g>
		<g transform="matrix(1 0 0 1 -111.34 0.02)" id="dd"  >
<path style="stroke: none; stroke-width: 1; stroke-dasharray: none; stroke-linecap: butt; stroke-dashoffset: 0; stroke-linejoin: miter; stroke-miterlimit: 4; fill: rgb(51,51,51); fill-rule: nonzero; opacity: 1;" vector-effect="non-scaling-stroke"  transform=" translate(-38.77, -13.16)" d="M 44.91 0 L 44.91 6.35 L 43.76 6.35 C 43.489999999999995 6.35 43.32 6.13 43.26 5.71 C 43.26 5.6 43.19 4.71 43.1 2.9 L 36.69 2.9 L 36.69 11.63 L 43 11.63 L 43 14.420000000000002 L 36.69 14.420000000000002 L 36.69 23.42 L 43.11 23.42 C 43.2 21.790000000000003 43.25 20.93 43.26 20.82 C 43.32 20.4 43.489999999999995 20.19 43.76 20.19 L 44.91 20.19 L 44.91 26.32 L 32.64 26.32 L 32.64 24.71 C 32.64 24.330000000000002 32.76 24.11 33 24.03 L 34.36 23.61 L 34.36 2.68 L 33 2.26 C 32.76 2.1799999999999997 32.64 1.9599999999999997 32.64 1.5799999999999996 L 32.64 0 Z" stroke-linecap="round" />
</g>
		<g transform="matrix(1 0 0 1 -80.26 0)" id="dd"  >
<path style="stroke: none; stroke-width: 1; stroke-dasharray: none; stroke-linecap: butt; stroke-dashoffset: 0; stroke-linejoin: miter; stroke-miterlimit: 4; fill: rgb(51,51,51); fill-rule: nonzero; opacity: 1;" vector-effect="non-scaling-stroke"  transform=" translate(-69.86, -13.15)" d="M 78.5 24.84 L 78.5 26.29 L 73.59 26.29 L 73.59 24.84 C 73.59 24.51 73.7 24.3 73.91 24.22 L 74.91 23.799999999999997 L 73.57 18.49 L 66.17 18.49 L 64.83 23.8 L 65.83 24.220000000000002 C 66.05 24.3 66.16 24.51 66.16 24.840000000000003 L 66.16 26.290000000000003 L 61.23 26.290000000000003 L 61.23 24.84 C 61.23 24.51 61.33 24.31 61.54 24.24 L 62.54 23.799999999999997 L 68.69 0 L 71 0 L 77.19 23.8 L 78.19 24.240000000000002 C 78.39 24.31 78.5 24.51 78.5 24.84 Z M 72.91 15.92 L 70.38 5.83 C 70.19999999999999 5.17 70.03 4.35 69.86 3.36 C 69.67 4.43 69.5 5.26 69.36 5.85 L 66.82 15.92 Z" stroke-linecap="round" />
</g>
		<g transform="matrix(1 0 0 1 -48.02 0)" id="dd"  >
<path style="stroke: none; stroke-width: 1; stroke-dasharray: none; stroke-linecap: butt; stroke-dashoffset: 0; stroke-linejoin: miter; stroke-miterlimit: 4; fill: rgb(51,51,51); fill-rule: nonzero; opacity: 1;" vector-effect="non-scaling-stroke"  transform=" translate(-102.1, -13.14)" d="M 109.38 24.71 L 109.38 26.29 L 106.9 26.29 C 106.45831375523387 26.273010646770594 106.08017659252648 25.96806132200657 105.97 25.54 L 101.53 16.14 C 101.42543448350506 15.90353316692243 101.27601023328499 15.689584808652778 101.09 15.51 C 100.87836045761532 15.367136834843778 100.62457369392042 15.300165327757629 100.37 15.32 L 98.84 15.32 L 98.84 23.61 L 100.2 24.03 C 100.45084742776568 24.15961285324111 100.59741473383414 24.4289797941237 100.57000000000001 24.71 L 100.57000000000001 26.29 L 94.81 26.29 L 94.81 24.71 C 94.78258526616587 24.4289797941237 94.92915257223433 24.15961285324111 95.18 24.03 L 96.54 23.61 L 96.54 2.68 L 95.18 2.2600000000000002 C 94.92915257223433 2.1303871467588897 94.78258526616587 1.8610202058763043 94.81 1.5800000000000005 L 94.81 0 L 101.15 0 C 102.10725398792019 -0.020642345861321923 103.05905325093913 0.1493218082492041 103.95 0.5 C 104.72588222103983 0.8160547020111273 105.41255173176076 1.3173234448374092 105.95 1.9599999999999995 C 106.48239885455104 2.644924943895424 106.87022895578264 3.430791201654192 107.09 4.269999999999998 C 107.34376617022846 5.249560323206937 107.46815714584076 6.2581358011445225 107.46000000000001 7.269999999999997 C 107.46419561105067 8.148266404994208 107.36688346553596 9.024075714626532 107.17 9.880000000000003 C 106.99733686068699 10.638941987986021 106.71788636279317 11.369553530672277 106.34 12.049999999999999 C 105.99608065189075 12.678936477718457 105.54224161273707 13.241154988908818 105 13.71 C 104.47877214899523 14.152588532453352 103.87808978883906 14.491957097513335 103.23 14.71 C 103.55844516954532 15.026434795889875 103.81728880689157 15.407888577242243 103.99000000000001 15.830000000000002 L 107.71000000000001 23.6 L 109 24 C 109.26825206784729 24.128154318109402 109.42215605050552 24.415711759391915 109.38 24.71 Z M 102.82 12.360000000000001 C 103.33163872627597 12.115140315960097 103.77479086135882 11.74756451399215 104.11 11.290000000000003 C 104.47531956124993 10.798600345094384 104.74345377311474 10.241967297678842 104.9 9.65 C 105.07864874043347 8.961078822865295 105.16606258974674 8.25168181497682 105.16000000000001 7.540000000000004 C 105.25469394923878 6.278981858184581 104.90048753947022 5.025091167603844 104.16000000000001 4.000000000000002 C 103.3956809180533 3.1638614014004887 102.28965016460828 2.7251358692006287 101.16000000000001 2.81 L 98.84 2.810000000000001 L 98.84 12.73 L 101 12.73 C 101.62729338796777 12.751165242062665 102.25076426942229 12.62441566726147 102.82 12.36 Z" stroke-linecap="round" />
</g>
		<g transform="matrix(1 0 0 1 -9.26 0)" id="dd"  >
<path style="stroke: none; stroke-width: 1; stroke-dasharray: none; stroke-linecap: butt; stroke-dashoffset: 0; stroke-linejoin: miter; stroke-miterlimit: 4; fill: rgb(51,51,51); fill-rule: nonzero; opacity: 1;" vector-effect="non-scaling-stroke"  transform=" translate(-140.86, -13.14)" d="M 148.42 18.53 C 148.07379318280977 19.996900008946923 147.49298425078382 21.39827039726536 146.7 22.68 C 145.46947520364392 24.903077060477187 143.13091236657692 26.28478112624017 140.58999999999997 26.29 L 132.7 26.29 L 132.7 24.71 C 132.7 24.330000000000002 132.82 24.11 133.04999999999998 24.03 L 134.42 23.61 L 134.42 2.68 L 133.04999999999998 2.2600000000000002 C 132.82 2.18 132.7 1.9600000000000002 132.7 1.58 L 132.7 0 L 140.58999999999997 0 C 143.13091236657692 0.005218873759830303 145.46947520364392 1.38692293952281 146.7 3.609999999999998 C 148.35822860525835 6.5065963290631 149.15609061431906 9.81598918403668 149 13.149999999999995 C 149.02527399536405 14.960205103165807 148.83051359482022 16.766775715106853 148.42 18.53 Z M 146.22 8.82 C 145.98602032605396 7.688948354971561 145.57424491093875 6.6021312757330595 145 5.599999999999997 C 144.16696626157466 3.928377851167828 142.4576807269941 2.874124641630606 140.59 2.879999999999999 L 136.75 2.8799999999999994 L 136.75 23.41 L 140.59 23.41 C 142.45347408069662 23.410744269812295 144.15879619490582 22.3628025624411 145 20.7 C 146.21677922794706 18.376717911076042 146.7866630933014 15.769067496878924 146.65 13.150000000000002 C 146.66732491874987 11.695202200115158 146.52310850642152 10.242976466669205 146.22 8.82 Z" stroke-linecap="round" />
</g>
		<g transform="matrix(1 0 0 1 23.89 0)" id="dd"  >
<path style="stroke: none; stroke-width: 1; stroke-dasharray: none; stroke-linecap: butt; stroke-dashoffset: 0; stroke-linejoin: miter; stroke-miterlimit: 4; fill: rgb(51,51,51); fill-rule: nonzero; opacity: 1;" vector-effect="non-scaling-stroke"  transform=" translate(-174.01, -13.15)" d="M 182.62 24.84 L 182.62 26.29 L 177.71 26.29 L 177.71 24.84 C 177.71 24.51 177.81 24.3 178.03 24.22 L 179.03 23.799999999999997 L 177.69 18.49 L 170.31 18.49 L 169 23.8 L 170 24.220000000000002 C 170.21 24.3 170.32 24.51 170.32 24.840000000000003 L 170.32 26.290000000000003 L 165.41 26.290000000000003 L 165.41 24.84 C 165.41 24.51 165.52 24.31 165.72 24.24 L 166.72 23.799999999999997 L 172.81 0 L 175.16 0 L 181.35 23.8 L 182.35 24.240000000000002 C 182.51 24.31 182.62 24.51 182.62 24.84 Z M 177 15.92 L 174.49 5.83 C 174.32000000000002 5.17 174.15 4.35 173.98000000000002 3.36 C 173.79000000000002 4.43 173.62 5.26 173.48000000000002 5.85 L 170.93 15.92 Z" stroke-linecap="round" />
</g>
		<g transform="matrix(1 0 0 1 57.49 0)" id="dd"  >
<path style="stroke: none; stroke-width: 1; stroke-dasharray: none; stroke-linecap: butt; stroke-dashoffset: 0; stroke-linejoin: miter; stroke-miterlimit: 4; fill: rgb(51,51,51); fill-rule: nonzero; opacity: 1;" vector-effect="non-scaling-stroke"  transform=" translate(-207.62, -13.14)" d="M 214.53 2.68 L 214.53 23.61 L 215.98 24.05 C 216.17 24.11 216.26 24.330000000000002 216.26 24.71 L 216.26 26.29 L 210.48 26.29 L 210.48 24.71 C 210.48 24.330000000000002 210.6 24.11 210.84 24.03 L 212.20000000000002 23.61 L 212.20000000000002 14.33 L 203 14.33 L 203 23.61 C 204.15 23.97 204.72 24.33 204.72 24.71 L 204.72 26.29 L 198.95 26.29 L 198.95 24.71 C 198.95 24.330000000000002 199.07 24.11 199.31 24.03 L 200.67000000000002 23.61 L 200.67000000000002 2.68 L 199.24 2.24 C 199.05 2.18 198.95000000000002 1.9600000000000002 198.95000000000002 1.58 L 198.95000000000002 0 L 204.72000000000003 0 L 204.72000000000003 1.58 C 204.72000000000003 1.96 204.63000000000002 2.17 204.46000000000004 2.23 L 203 2.68 L 203 11.68 L 212.22 11.68 L 212.22 2.6799999999999997 L 210.79 2.2399999999999998 C 210.6 2.1799999999999997 210.5 1.9599999999999997 210.5 1.5799999999999996 L 210.5 0 L 216.28 0 L 216.28 1.58 C 216.28 1.96 216.16 2.18 215.91 2.2600000000000002 Z" stroke-linecap="round" />
</g>
		<g transform="matrix(1 0 0 1 88.45 0)" id="dd"  >
<path style="stroke: none; stroke-width: 1; stroke-dasharray: none; stroke-linecap: butt; stroke-dashoffset: 0; stroke-linejoin: miter; stroke-miterlimit: 4; fill: rgb(51,51,51); fill-rule: nonzero; opacity: 1;" vector-effect="non-scaling-stroke"  transform=" translate(-238.57, -13.14)" d="M 244.57 26.29 L 232.57 26.29 L 232.57 24.71 C 232.53789791882383 24.430709075010927 232.68097228126678 24.16045750150763 232.93 24.03 L 234.29000000000002 23.61 L 234.29000000000002 2.68 L 232.93 2.2600000000000002 C 232.68097228126678 2.129542498492373 232.53789791882383 1.859290924989074 232.57 1.58 L 232.57 0 L 238.32999999999998 0 L 238.32999999999998 1.58 C 238.35741473383413 1.861020205876304 238.21084742776566 2.1303871467588897 237.95999999999998 2.2600000000000002 L 236.60999999999999 2.68 L 236.60999999999999 23.3 L 242.77999999999997 23.3 C 242.83999999999997 22.25 242.89 21.3 242.90999999999997 21.2 C 242.95999999999998 20.83 243.16999999999996 20.57 243.39999999999998 20.57 L 244.55999999999997 20.57 Z" stroke-linecap="round" />
</g>
		<g transform="matrix(1 0 0 1 113.64 0)" id="dd"  >
<path style="stroke: none; stroke-width: 1; stroke-dasharray: none; stroke-linecap: butt; stroke-dashoffset: 0; stroke-linejoin: miter; stroke-miterlimit: 4; fill: rgb(51,51,51); fill-rule: nonzero; opacity: 1;" vector-effect="non-scaling-stroke"  transform=" translate(-263.76, -13.14)" d="M 264.92 2.68 L 264.92 23.61 L 266.37 24.05 C 266.56 24.11 266.65 24.330000000000002 266.65 24.71 L 266.65 26.29 L 260.88 26.29 L 260.88 24.71 C 260.88 24.330000000000002 261 24.11 261.24 24.03 L 262.6 23.61 L 262.6 2.68 L 261.17 2.24 C 260.98 2.18 260.88 1.9600000000000002 260.88 1.58 L 260.88 0 L 266.65 0 L 266.65 1.58 C 266.65 1.96 266.53 2.18 266.28 2.2600000000000002 Z" stroke-linecap="round" />
</g>
		<g transform="matrix(1 0 0 1 141.5 0)" id="dd"  >
<path style="stroke: none; stroke-width: 1; stroke-dasharray: none; stroke-linecap: butt; stroke-dashoffset: 0; stroke-linejoin: miter; stroke-miterlimit: 4; fill: rgb(51,51,51); fill-rule: nonzero; opacity: 1;" vector-effect="non-scaling-stroke"  transform=" translate(-291.62, -13.14)" d="M 300.24 24.84 L 300.24 26.29 L 295.33 26.29 L 295.33 24.84 C 295.33 24.51 295.44 24.3 295.65 24.22 L 296.65 23.799999999999997 L 295.31 18.49 L 287.93 18.49 L 286.59000000000003 23.799999999999997 L 287.59000000000003 24.22 C 287.81000000000006 24.299999999999997 287.92 24.509999999999998 287.92 24.84 L 287.92 26.29 L 283 26.29 L 283 24.84 C 283 24.51 283.1 24.31 283.31 24.24 L 284.31 23.799999999999997 L 290.43 0 L 292.78000000000003 0 L 299 23.8 L 300 24.240000000000002 C 300.13 24.31 300.24 24.51 300.24 24.84 Z M 294.65000000000003 15.92 L 292.12 5.83 C 291.94 5.17 291.77 4.35 291.6 3.36 C 291.41 4.43 291.24 5.26 291.1 5.85 L 288.56 15.92 Z" stroke-linecap="round" />
</g>
</g>
</g>
</svg>