<svg xmlns="http://www.w3.org/2000/svg" viewBox="0 0 1920 1080"><defs><style>.cls-1{fill:#fff;}</style></defs><g id="Layer_2" data-name="Layer 2"><g id="Layer_1-2" data-name="Layer 1"><path class="cls-1" d="M850.59,535.57a11.46,11.46,0,0,0,1.88-3.9,19.34,19.34,0,0,0,.62-5,12.79,12.79,0,0,0-2.38-8.42,8.78,8.78,0,0,0-7.13-2.83h-5.52V539h5.14a9.46,9.46,0,0,0,4.32-.88A8.15,8.15,0,0,0,850.59,535.57Z"/><path class="cls-1" d="M950.73,529.69a26.33,26.33,0,0,0-2.9-7.66,11.68,11.68,0,0,0-10.49-6.46h-9.13v48.82h9.13a11.76,11.76,0,0,0,10.49-6.45,34.84,34.84,0,0,0,3.92-18A46.93,46.93,0,0,0,950.73,529.69Z"/><path class="cls-1" d="M1016.74,516.68c-.45,2.55-.86,4.52-1.19,5.93l-6.07,23.94h14.44l-6-24C1017.55,521,1017.14,519,1016.74,516.68Z"/><path class="cls-1" d="M769.15,516.68c-.45,2.55-.86,4.52-1.19,5.93l-6,23.94H776.4l-6-24C770,521,769.55,519,769.15,516.68Z"/><path class="cls-1" d="M0,0V1080H1920V0ZM641.86,540a52,52,0,0,1-1.45,12.79,33.37,33.37,0,0,1-4.09,9.87,16.63,16.63,0,0,1-14.51,8.58H603v-3.75c0-.91.28-1.43.85-1.62l3.24-1V515.09l-3.24-1c-.57-.19-.85-.62-.85-1.61v-3.76h18.78a16.63,16.63,0,0,1,14.51,8.58A41.71,41.71,0,0,1,641.86,540Zm68-16.17h-2.73c-.64,0-1.05-.52-1.19-1.52,0-.27-.17-2.38-.38-6.69H690.3v20.76h15V543h-15v21.4h15.26c.22-3.88.34-5.92.36-6.18.14-1,.55-1.5,1.19-1.5h2.73v14.58H680.67v-3.83c0-.91.28-1.43.85-1.62l3.24-1V515.09l-3.24-1c-.57-.19-.85-.71-.85-1.61v-3.76h29.17Zm79.85,47.39H778v-3.45c0-.78.26-1.28.76-1.47l2.38-1L778,552.66h-17.6l-3.18,12.63,2.38,1c.52.19.78.69.78,1.47v3.45H748.63v-3.45c0-.78.24-1.26.73-1.42l2.38-1.05,14.63-56.6h5.49l14.72,56.6,2.38,1.05c.47.16.73.64.73,1.42Zm73.43,0h-5.89a2.37,2.37,0,0,1-2.21-1.78L844.46,547.1a4.9,4.9,0,0,0-1.05-1.5,2.66,2.66,0,0,0-1.71-.45h-3.64v19.71l3.23,1a1.63,1.63,0,0,1,.88,1.62v3.75H828.48v-3.75a1.63,1.63,0,0,1,.88-1.62l3.23-1V515.09l-3.23-1a1.63,1.63,0,0,1-.88-1.61v-3.76h15.07a17,17,0,0,1,6.66,1.19,12.15,12.15,0,0,1,4.76,3.47,15.34,15.34,0,0,1,2.71,5.49,27.71,27.71,0,0,1,.88,7.14,27,27,0,0,1-.69,6.2,19.8,19.8,0,0,1-2,5.16,14.33,14.33,0,0,1-3.19,4,12.92,12.92,0,0,1-4.21,2.38,7.81,7.81,0,0,1,1.81,2.66l8.84,18.48,3.07.95a1.61,1.61,0,0,1,.9,1.69ZM957.34,540A53.45,53.45,0,0,1,956,552.78a33.63,33.63,0,0,1-4.09,9.87,16.64,16.64,0,0,1-14.53,8.58H918.58v-3.75c0-.91.28-1.43.83-1.62l3.26-1V515.09l-3.26-1c-.55-.19-.83-.71-.83-1.61v-3.76h18.76a16.66,16.66,0,0,1,14.53,8.58A41.79,41.79,0,0,1,957.34,540Zm79.94,31.22h-11.67v-3.45c0-.78.23-1.28.76-1.47l2.38-1-3.19-12.63H1008l-3.11,12.63,2.37,1c.5.19.76.69.76,1.47v3.45H996.36v-3.45c0-.78.26-1.26.74-1.42l2.37-1.05,14.48-56.6h5.59l14.72,56.6,2.38,1.05c.38.16.64.64.64,1.42Zm80-58.73c0,.9-.29,1.42-.88,1.61l-3.28,1v49.77l3.45,1c.45.14.66.66.66,1.57v3.75h-13.74v-3.75c0-.91.28-1.43.85-1.62l3.24-1V542.79h-21.88v22.07c2.73.86,4.09,1.71,4.09,2.62v3.75h-13.72v-3.75c0-.91.29-1.43.86-1.62l3.23-1V515.09l-3.4-1.05c-.45-.14-.69-.66-.69-1.56v-3.76h13.72v3.76c0,.9-.21,1.4-.62,1.54l-3.47,1.07v21.4h21.92v-21.4l-3.4-1.05c-.45-.14-.69-.66-.69-1.56v-3.76h13.75Zm38.76,58.75v-3.75a1.61,1.61,0,0,1,.85-1.62l3.24-1V515.09l-3.24-1a1.6,1.6,0,0,1-.85-1.61v-3.76h13.7v3.76a1.66,1.66,0,0,1-.88,1.61l-3.21,1v49h14.67c.14-2.49.26-4.75.31-5,.12-.88.61-1.5,1.16-1.5h2.76l0,13.6Zm81-58.75c0,.9-.29,1.42-.88,1.61l-3.24,1v49.77l3.45,1c.45.14.67.66.67,1.57v3.75h-13.72v-3.75c0-.91.28-1.43.85-1.62l3.24-1V515.09l-3.4-1.05c-.45-.14-.69-.66-.69-1.56v-3.76h13.72ZM1317,571.23H1305.3v-3.44c0-.79.26-1.29.76-1.48l2.38-1-3.19-12.62H1287.7l-3.19,12.62,2.38,1c.52.19.79.69.79,1.48v3.44H1276v-3.44c0-.79.23-1.26.73-1.43l2.38-1.05,14.55-56.59h5.59L1314,565.31l2.38,1.05a1.56,1.56,0,0,1,.57,1.43Z"/><path class="cls-1" d="M1296.43,516.71c-.45,2.54-.86,4.52-1.19,5.92l-6,23.94h14.48l-6-24C1297.24,521,1296.83,519.06,1296.43,516.71Z"/><path class="cls-1" d="M635.18,529.69a25.67,25.67,0,0,0-2.9-7.66,11.66,11.66,0,0,0-10.47-6.46h-9.15v48.82h9.15a11.76,11.76,0,0,0,10.47-6.45,34.8,34.8,0,0,0,4-18A46.92,46.92,0,0,0,635.18,529.69Z"/></g></g></svg>