<svg xmlns="http://www.w3.org/2000/svg" viewBox="0 0 1920 1080"><defs><style>.cls-1{fill:#fff;}</style></defs><g id="Layer_2" data-name="Layer 2"><g id="Layer_1-2" data-name="Layer 1"><path class="cls-1" d="M1019.7,509.6c-.5,2.6-.9,4.5-1.2,5.9l-6.1,24h14.4l-6-24C1020.6,513.9,1020.1,511.9,1019.7,509.6Z"/><path class="cls-1" d="M956.7,522.6a26.57,26.57,0,0,0-2.9-7.7,11.66,11.66,0,0,0-10.5-6.5h-9.1v48.8h9.1a11.87,11.87,0,0,0,10.5-6.4c2.9-5.5,3.9-11.9,3.9-17.9A71.82,71.82,0,0,0,956.7,522.6Z"/><path class="cls-1" d="M856.6,528.5a11.78,11.78,0,0,0,1.9-3.9,20.74,20.74,0,0,0,.6-5,12.58,12.58,0,0,0-2.4-8.4,8.61,8.61,0,0,0-7.1-2.8H844V532h5.1a8,8,0,0,0,4.3-.9A9.17,9.17,0,0,0,856.6,528.5Z"/><path class="cls-1" d="M775.1,509.6c-.5,2.6-.9,4.5-1.2,5.9l-6,24h14.4l-6-24C775.9,513.9,775.6,511.9,775.1,509.6Z"/><path class="cls-1" d="M641.2,522.6a26.57,26.57,0,0,0-2.9-7.7,11.66,11.66,0,0,0-10.5-6.5h-9.2v48.8h9.2a11.87,11.87,0,0,0,10.5-6.4,35,35,0,0,0,4-18A50.54,50.54,0,0,0,641.2,522.6Z"/><path class="cls-1" d="M1296.4,509.6c-.4,2.5-.9,4.5-1.2,5.9l-6,23.9h14.5l-6-24A59.13,59.13,0,0,1,1296.4,509.6Z"/><path class="cls-1" d="M0,0V1080H1920V0ZM647.8,532.9a55.18,55.18,0,0,1-1.4,12.8,33,33,0,0,1-4.1,9.9,16.58,16.58,0,0,1-14.5,8.6H609v-3.8c0-.9.3-1.4.8-1.6l3.2-1V508l-3.2-1c-.6-.2-.8-.6-.8-1.6v-3.8h18.8a16.58,16.58,0,0,1,14.5,8.6A41.15,41.15,0,0,1,647.8,532.9Zm68-16.2h-2.7c-.7,0-1-.5-1.2-1.5,0-.3-.2-2.4-.4-6.7H696.2v20.8h15v6.6h-15v21.4h15.3c.2-3.9.3-5.9.4-6.2q.15-1.5,1.2-1.5h2.7v14.6H686.6v-3.8c0-.9.3-1.4.9-1.6l3.2-1V508l-3.2-1c-.6-.2-.9-.7-.9-1.6v-3.8h29.2Zm79.9,47.4H784v-3.4a1.45,1.45,0,0,1,.8-1.5l2.4-1L784,545.6H766.4l-3.2,12.6,2.4,1a1.45,1.45,0,0,1,.8,1.5v3.4H754.6v-3.4c0-.8.2-1.3.7-1.4l2.4-1,14.6-56.6h5.5l14.7,56.6,2.4,1c.5.2.7.6.7,1.4Zm73.4,0h-5.9a2.26,2.26,0,0,1-2.2-1.8L850.4,540a4,4,0,0,0-1-1.5,2.54,2.54,0,0,0-1.7-.4h-3.6v19.7l3.2,1a1.8,1.8,0,0,1,.9,1.6v3.8H834.5v-3.8a1.54,1.54,0,0,1,.9-1.6l3.2-1V508l-3.2-1a1.8,1.8,0,0,1-.9-1.6v-3.8h15.1a17.26,17.26,0,0,1,6.7,1.2,13.84,13.84,0,0,1,4.8,3.5,14.16,14.16,0,0,1,2.7,5.5,28.41,28.41,0,0,1,.9,7.2,25.64,25.64,0,0,1-.7,6.2,20.68,20.68,0,0,1-2,5.2,13.78,13.78,0,0,1-3.2,4,11.77,11.77,0,0,1-4.2,2.4,8,8,0,0,1,1.8,2.7l8.8,18.5,3.1,1a1.68,1.68,0,0,1,.9,1.7v3.4ZM963.2,533a49.48,49.48,0,0,1-1.4,12.7,33,33,0,0,1-4.1,9.9,16.58,16.58,0,0,1-14.5,8.6H924.4v-3.8c0-.9.3-1.4.8-1.6l3.3-1V508l-3.3-1c-.5-.2-.8-.7-.8-1.6v-3.8h18.8a16.58,16.58,0,0,1,14.5,8.6C961.8,517.1,963,524.7,963.2,533Zm77.1,31.1h-11.8v-3.4c0-.8.2-1.3.8-1.5l2.4-1-3.1-12.7H1011l-3.1,12.6,2.4,1a1.45,1.45,0,0,1,.8,1.5V564H999.4v-3.4c0-.8.3-1.3.7-1.4l2.4-1,14.5-56.6h5.6l14.7,56.6,2.4,1c.4.2.6.6.6,1.4Zm79-58.7c0,.9-.3,1.4-.9,1.6l-3.3,1v49.8l3.4,1.1c.5.1.7.7.7,1.6v3.8h-13.8v-3.8c0-.9.3-1.4.9-1.6l3.2-1V535.8h-21.9v22.1c2.7.9,4.1,1.7,4.1,2.6v3.8H1078v-3.8c0-.9.3-1.4.8-1.6l3.2-1V508l-3.4-1c-.5-.1-.7-.7-.7-1.6v-3.8h13.7v3.8c0,.9-.2,1.4-.6,1.6l-3.5,1.1v21.4h21.9V508.1l-3.4-1c-.4-.1-.7-.7-.7-1.6v-3.8h13.8Zm40.8,58.8v-3.8a1.54,1.54,0,0,1,.9-1.6l3.2-1V508l-3.2-1a1.8,1.8,0,0,1-.9-1.6v-3.8h13.7v3.8a1.54,1.54,0,0,1-.9,1.6l-3.2,1v49h14.7c.1-2.5.3-4.8.3-5,.1-.9.6-1.5,1.2-1.5h2.7v13.6Zm81-58.8c0,.9-.3,1.4-.9,1.6l-3.2,1v49.8l3.5,1.1c.4.1.7.7.7,1.6v3.8h-13.7v-3.8c0-.9.3-1.4.9-1.6l3.2-1V508l-3.4-1c-.4-.1-.7-.7-.7-1.6v-3.8h13.7Zm75.9,58.8h-11.7v-3.4a1.45,1.45,0,0,1,.8-1.5l2.4-1-3.2-12.6h-17.6l-3.1,12.6,2.4,1a1.45,1.45,0,0,1,.8,1.5v3.4H1276v-3.4c0-.8.2-1.3.7-1.4l2.4-1,14.6-56.6h5.6l14.8,56.6,2.4,1a1.82,1.82,0,0,1,.6,1.4Z"/></g></g></svg>